<svg width="18" height="16" viewBox="0 0 18 16" fill="none" xmlns="http://www.w3.org/2000/svg">
    <path d="M7.33333 4.66732V3.00065C7.33333 2.55862 7.50893 2.1347 7.82149 1.82214C8.13405 1.50958 8.55797 1.33398 9 1.33398H14.8333C15.2754 1.33398 15.6993 1.50958 16.0118 1.82214C16.3244 2.1347 16.5 2.55862 16.5 3.00065V13.0007C16.5 13.4427 16.3244 13.8666 16.0118 14.1792C15.6993 14.4917 15.2754 14.6673 14.8333 14.6673H9C8.55797 14.6673 8.13405 14.4917 7.82149 14.1792C7.50893 13.8666 7.33333 13.4427 7.33333 13.0007V11.334M13.1667 8.00065H1.5M1.5 8.00065L4 5.50065M1.5 8.00065L4 10.5007" stroke="black" stroke-width="2" stroke-linecap="round" stroke-linejoin="round"/>
    </svg>
    