<svg width="16" height="16" viewBox="0 0 16 16" fill="none" xmlns="http://www.w3.org/2000/svg">
    <path d="M2.94217 3.77965L4.00467 7.32049M8.67717 11.9947L12.2197 13.0572M7.73552 8.26383L12.5347 3.46466M3.83301 2.58301C3.83301 3.27336 3.27336 3.83301 2.58301 3.83301C1.89265 3.83301 1.33301 3.27336 1.33301 2.58301C1.33301 1.89265 1.89265 1.33301 2.58301 1.33301C3.27336 1.33301 3.83301 1.89265 3.83301 2.58301ZM14.6663 2.58301C14.6663 3.27336 14.1067 3.83301 13.4163 3.83301C12.726 3.83301 12.1663 3.27336 12.1663 2.58301C12.1663 1.89265 12.726 1.33301 13.4163 1.33301C14.1067 1.33301 14.6663 1.89265 14.6663 2.58301ZM14.6663 13.4163C14.6663 14.1067 14.1067 14.6663 13.4163 14.6663C12.726 14.6663 12.1663 14.1067 12.1663 13.4163C12.1663 12.726 12.726 12.1663 13.4163 12.1663C14.1067 12.1663 14.6663 12.726 14.6663 13.4163ZM8.83301 10.9163C8.83301 12.9874 7.15408 14.6663 5.08301 14.6663C3.01194 14.6663 1.33301 12.9874 1.33301 10.9163C1.33301 8.84527 3.01194 7.16634 5.08301 7.16634C7.15408 7.16634 8.83301 8.84527 8.83301 10.9163Z" stroke="black" stroke-width="2" stroke-linecap="round" stroke-linejoin="round"/>
    </svg>
    