<svg width="19" height="18" viewBox="0 0 19 18" fill="none" xmlns="http://www.w3.org/2000/svg">
    <path d="M1.5 16.5V14.8333C1.5 13.9493 1.85119 13.1014 2.47631 12.4763C3.10143 11.8512 3.94928 11.5 4.83333 11.5H8.16667C9.05072 11.5 9.89857 11.8512 10.5237 12.4763C11.1488 13.1014 11.5 13.9493 11.5 14.8333V16.5M12.3333 8.16667H17.3333M14.8333 5.66667V10.6667M9.83333 4.83333C9.83333 6.67428 8.34095 8.16667 6.5 8.16667C4.65905 8.16667 3.16667 6.67428 3.16667 4.83333C3.16667 2.99238 4.65905 1.5 6.5 1.5C8.34095 1.5 9.83333 2.99238 9.83333 4.83333Z" stroke="black" stroke-width="2" stroke-linecap="round" stroke-linejoin="round"/>
    </svg>
    